<svg xmlns="http://www.w3.org/2000/svg" data-name="Warstwa 2" viewBox="0 0 954.52 117.81" fill="#ffffff"><g data-name="Warstwa 1"><path d="M39.75 17.76 9.11 48.44h17.48v61.45L0 83.3V34.51L34.51 0h48.8l17.75 17.76H39.75z"/><path d="M117.81 34.51V83.3l-34.5 34.51h-48.8l-6.84-6.84 31.19-32.82h-20l9.65-9.63H68.5l20.06-20.06H42.99l9.63-9.62h45.57l11.98-11.98 7.64 7.65zM243.66 20.4v17.15h-55.84V51.4h44.96v17.15h-44.96v31h-17.26V20.4h73.1Zm69.14 0c9.01 0 16.38 7.25 16.38 16.27v62.88h-17.26v-25.5h-44.85v25.5h-17.04V36.67c0-9.01 7.26-16.27 16.27-16.27h46.5Zm-.88 36.49V37.54h-44.85v19.35h44.85ZM403.6 20.4h17.26v79.15h-17.59l-44.52-52.98v52.98h-17.04V20.4h17.59l44.3 52.76V20.4Zm108.16 23.63H494.5v-6.49h-44.85v13.85h45.84c8.9 0 16.27 7.25 16.27 16.27v15.61c0 9.01-7.37 16.27-16.27 16.27h-46.61c-9.01 0-16.27-7.25-16.27-16.27V75.9h17.04v6.49h44.85V68.54h-45.62c-9.01 0-16.27-7.25-16.27-16.27V36.66c0-9.01 7.25-16.27 16.27-16.27h46.61c8.9 0 16.27 7.25 16.27 16.27v7.37Zm74.53-23.52c9.01 0 16.38 7.36 16.38 16.27v20.45c0 8.9-7.36 16.27-16.38 16.27l-45.73.11c.22 0 .33.22.33.66 0 0-.22 0-.33-.11v25.39h-17.04V20.51h62.77Zm-45.73 35.83h44.85v-18.8h-44.85v18.8ZM673.12 20.4c8.9 0 16.27 7.25 16.27 16.27v46.61c0 9.01-7.36 16.27-16.27 16.27h-46.61c-9.01 0-16.27-7.25-16.27-16.27V36.67c0-9.01 7.25-16.27 16.27-16.27h46.61Zm-45.84 62h44.85V37.55h-44.85V82.4Zm153.23-25.18c0 8.9-7.37 16.27-16.38 16.27h-.77c5.61 6.59 11.65 13.63 17.15 20.23v5.83h-17.59L741.04 73.5l-22.64.11c.22 0 .33.22.33.66 0 0-.22 0-.33-.11v25.39h-17.04V20.51h62.77c9.01 0 16.38 7.36 16.38 16.27v20.45Zm-62.1-.88h44.85v-18.8h-44.85v18.8ZM867.35 20.4v17.15h-31v62H819.2v-62h-31V20.4h79.15Zm25.06 62h44.85v-62h17.26v62.88c0 9.01-7.36 16.27-16.27 16.27h-46.61c-9.01 0-16.27-7.25-16.27-16.27V20.4h17.04v62Z"/></g></svg>