<?xml version="1.0" encoding="UTF-8"?>
<svg id="Warstwa_2" xmlns="http://www.w3.org/2000/svg" version="1.1" viewBox="0 0 985.6 185.4" fill="#ffffff">
  <!-- Generator: Adobe Illustrator 30.3.0, SVG Export Plug-In . SVG Version: 2.1.3 Build 182)  -->
  <defs>
    <style>
      .st0 {
        isolation: isolate;
      }
    </style>
  </defs>
  <g id="Warstwa_1-2">
    <path class="st0" d="M517.6,145.3V29.8h49.6l20.9,24,21-24h49.5v115.4h-51.1v-57.8l-19.4,22.3-19.4-22.3v57.8h-51.1,0ZM680.5,145.3V29.8h49.6l20.9,24,21-24h49.5v115.4h-51.1v-57.8l-19.4,22.3-19.4-22.3v57.8h-51.1,0ZM883.7,145.3h-51.1l40.1-115.4h72.8l40.1,115.4h-51l-6.7-19.5h-37.5l-6.7,19.5h0ZM899.6,98.5h18.9l-9.5-28.7-9.5,28.7h0Z"/>
    <g>
      <polygon points="435.4 49.5 435.4 49.5 435.4 49.5 435.4 49.5"/>
      <path d="M499.2,17.6v-7.2H192.9v32.7c-4.1-1.8-7.4-3.5-8.3-5.6-3-10.6-12.7-34.1-13.4-35-1.4-1.8-3.6-2.7-5.8-2.4-13.4,1.6-56.7,9.3-72.7,13.5-9.1,2.5-18.2,5-27.1,8.2-7,2.6-14,5.6-20.4,9.5-6,3.6-11.5,7.8-17.4,11.5-1.9,1.2-4.1,3.2-8.8,4.9C-5.6,54.6-.2,63,2.5,74.3c2.2,9,14.3,48.5,19.4,64.8,1.4,4.4,5.1,7.7,9.6,8.5,3.7.7,15.4-.3,23.3-1.1,4.6-.5,8.9,2.3,10.4,6.6l4.7,13.2c1,2.8,3.1,5,5.8,6,4,1.6,10,3.7,14.5,4.5,12.3,2.7,22.3,10.4,45.5,8.2,37-3.5,84-19.8,84-19.8l4.1-1.7h275.4V25.7l-34.6,61.2,4.1,51.2-52,4.1-4.1-51.2-50-62.6,52.6-4.2,20.3,25.1,15.9-28,47.8-3.8ZM132,17c2.9-1.4,8.3-2.2,13.4-3.1,3.8-.6,7.4-1.2,10-1.9.7-.2,1.4-.3,2.2-.3,3.1,0,5.7,1.8,6.6,4.4,1.1,3.3,3.3,9.6,6,17.6,4.8,13.4,12.1,34.8,17.2,50,0,0,0,0,0,0,3.3,9.8,6.1,18.4,7.9,24.1h0c.6,1.9.4,3.8-.6,5.5-1.1,1.9-3.1,3.2-5.4,3.6l-22.1,3.3c-.6,0-1.1.2-1.6.2-3.5,0-6.6-2.2-7.6-5.3-1.6-5.2-4.3-13.7-7.3-23.4-2.6-8.2-7.2-22.5-9.8-30.9-5.7-18-10.7-33.6-11.9-37.8-.7-2.4.5-5,2.9-6.1ZM62.8,131.7c-1.1,1.7-2.9,2.9-5,3.2-3.8.6-8.4.9-13.1.9s-7.9-.3-9-.6c-3.5-.9-5-3-6.5-6.5-1-2.4-3.2-10.3-5.7-19.8h0c-4.6-17.5-10-40.3-10.5-42.3,0-2.3.5-3.4,2.2-4.4,5.3-3.2,11.4-5,16.1-6.3.6-.2,1.1-.3,1.7-.5,1.9-.6,4.1-1.2,6-1.2s3.2.6,4.1,1.9c2.2,3.3,8.7,26.7,14.1,46.6h0c.2.7.4,1.5.6,2.2,2.1,7.6,4.1,14.8,5.8,21.1.6,2,.3,4-.8,5.7ZM109.2,137.4c-1.2,2-3.2,3.4-5.5,3.9l-19.2,3.8c-.5,0-1.1.2-1.6.2-3.7,0-7-2.5-8-6.1-2.3-8.1-5.7-19.9-9.2-32.4-6.4-22.8-14.6-51.7-16.4-57.9-.8-2.9.5-5.8,3.2-7.2,5.9-3.1,14.2-7.1,20.6-9.1.7-.2,1.5-.3,2.3-.3,3.2,0,6.1,2.1,7,5.1,2.8,8.9,11,36.5,17.9,59.9,3.9,13,7.4,25.3,9.9,33.5.6,2.2.3,4.6-1,6.6ZM119.5,136.9c-2.5-8.8-8.8-30.6-14-48.1h0c-1.3-4.5-2.6-9-4-13.4-6-20.4-11.2-37.9-12.5-42.7-.8-2.9.5-5.8,3.1-7.2,3.2-1.7,7.8-2.7,12.2-3.6,2.8-.6,5.8-1.2,8.3-2.1.8-.2,1.5-.3,2.3-.3,3.2,0,6.1,2.1,7,5.1,1.2,3.7,3.4,10.8,6.3,19.8,4,12.7,9,28.3,13.7,43h0c4.9,15.8,10.1,32.6,12.6,41.2.7,2.2.4,4.6-.8,6.6-1.2,2-3.2,3.4-5.5,3.8l-19.2,3.8c-.5,0-1.1.2-1.6.2-3.7,0-7-2.5-8-6.1ZM223.8,152.3c-14.6,5.5-68.3,20.9-89,22.7h0c-1.8,0-4.6-4.8-6.8-15.5v-.2c-.4-1.5,0-3.3,1.4-4.8,1.5-.9,12.6-4.9,23.2-8.8,15.8-5.7,35.5-12.9,46.3-17.6,4.8-2.2,8-7.2,8-12.3,0,0,0-1.4-.8-4-5.9-17.7-15.9-47.8-16.6-50.2-.1-.2-.2-.6-.4-1.2-2.3-6.7-2.7-9.2-2.7-10.1h.3c.5,0,.8,0,1,.2.7.4,2.5,1.4,4.5,2.6,3.5,2.1,7.9,4.7,9.7,5.6,3.2,1.6,5.2,4.2,6.1,8.1,1.3,5.2,6.7,26.5,11.7,46.2,3.3,12.9,6.3,25.6,7.9,32,.8,3-.8,6.1-3.7,7.3ZM308.2,150.9h0l-4.7-58.7-17.9,24.2-21.5-21.1,4.7,58.7-30.6,2.4c1.4-1.7,2.1-4,1.8-6.2,0,0-11.8-53.9-22.8-92.9-.9-3.2-4.5-5.8-9.1-8l-.7-8.5,50.4-4,23.2,22.8,19.3-26.2,50.4-4,9.4,117.3-52,4.2Z"/>
    </g>
  </g>
</svg>