<?xml version="1.0" encoding="UTF-8"?>
<svg id="Warstwa_1" xmlns="http://www.w3.org/2000/svg" version="1.1" viewBox="0 0 357.2 56.6" fill="#ffffff">
  <!-- Generator: Adobe Illustrator 30.3.0, SVG Export Plug-In . SVG Version: 2.1.3 Build 182)  -->
  <g>
    <path d="M116.2,55.2h-15.2c-1.9-8.1,1.1-17.4-2.5-20.1s-4.6-1.2-7-1.1v21.3s-13.3,0-13.3,0V2.1s23.1.3,23.1.3c7.7,0,12.7,5.5,13,12.7s-1.7,10.3-6.5,13.8c2.8,1.7,5.4,4.2,5.6,6.8l.8,13c.1,1.6,1.2,4.4,2,6.6ZM91.5,24.1c4.6.6,7.7-.4,8.7-3.2s.6-6.1-.7-7.6-5.6-2.1-8-1.5v12.2Z"/>
    <path d="M218.6,45.4l-10.5-.3-1.7,10.2h-13.3c0-.1,12.4-53.1,12.4-53.1h15.9s12.2,53,12.2,53h-13.4c0,0-1.5-9.7-1.5-9.7ZM217.2,35l-4-21.5-3.8,22,7.8-.5Z"/>
    <path d="M28,53.2c-6.8,4.9-16.8,4-22.9-.4S-.4,43.1.2,37.1h12c0,3.5.2,6.8,1.9,8.6s5.5.8,6.5-.5,1.3-6.3-.2-7.4l-13.6-9.4C-.9,23.1-1.2,10.5,4.9,4.9s18.8-5.4,24.8.4,4,7.9,3.7,12.4l-11.6-.2c0-2.3-.9-6.2-2.6-7.1s-5,0-5.6,1.4-.5,5.3.8,6.2l14.7,10.2c7.6,5.3,6.7,19.3-1.2,25.1Z"/>
    <polygon points="152.1 32.7 135.7 32.7 135.7 44.4 153.5 44.4 153.5 55.1 122.5 55.2 122.5 2.1 153.5 2.1 153.5 12.7 135.7 12.7 135.7 22 151.9 22.1 152.1 32.7"/>
    <polygon points="191.3 22.1 191.3 32.6 175.1 32.7 175 55.1 161.7 55.1 161.7 2.1 192.5 2.1 192.5 12.8 175.1 12.6 175.2 22 191.3 22.1"/>
    <polygon points="61.7 55.1 48.5 55.2 48.5 12.8 37.8 12.6 37.7 2.1 73 2.1 73.1 12.6 61.8 12.7 61.7 55.1"/>
  </g>
  <g>
    <polygon points="321.4 33 326.4 33 324 24.1 321.4 33"/>
    <path d="M342.3,6.3h-112.3s11.8,48.5,11.8,48.5h115.5c0-.1-15-48.5-15-48.5ZM277.2,45.3h-7c.2-7.1.3-11.3-.1-17.9l-4.3,17.8-5.5-.2-4.5-18.6v18.9c.1,0-6.9,0-6.9,0V15.9s10.5.2,10.5.2l3.7,16.8,3.9-17h10.3s0,29.4,0,29.4ZM310.5,45.2h-6.7c0,0-.6-16.7-.6-16.7l-4.2,16.8h-5.3c0,0-4.6-17.1-4.6-17.1v17c0,0-6.8,0-6.8,0V15.9s10.1,0,10.1,0l3.9,15.7,3.9-15.6h10.2c0,0,0,29.2,0,29.2ZM327.9,45.4l-1.5-7.7h-5l-1.8,7.7h-6.8l6.8-29.6h8.9l6.8,29.6h-7.4Z"/>
  </g>
</svg>