<svg xmlns="http://www.w3.org/2000/svg" width="158" height="28" fill="none" viewBox="0 0 158 28">
    <path fill="#fff" d="M13.91 8.665c-.129-1.507-.792-2.562-2.826-2.873-1.942-.3-2.863.327-3.024 1.326-.184 1.15.585 1.711 2.59 2.33q1.275.396 2.553.786c5.05 1.542 6.66 3.616 6.198 7.148-.507 3.944-4.12 6.628-10.634 5.64-6.48-.995-9.744-4.152-8.51-9.095q3.063.534 6.132 1.027c-.412 1.547.214 2.898 3.227 3.36 2.314.352 3.399-.208 3.57-1.39.15-1.032-.438-1.641-2.19-2.183q-1.258-.391-2.515-.79c-5.092-1.61-7.117-4.007-6.478-7.656.613-3.48 3.78-6.163 9.898-5.216 5.785.88 8.502 3.843 8.004 8.39q-3-.382-5.995-.804m7.533 7.065 1.614-12.652q3 .383 6.004.725L27.65 16.201c-.283 2.466.69 3.815 2.98 4.06 2.29.243 3.524-.872 3.766-3.342l1.23-12.417q3.008.297 6.018.555l-1.086 12.707c-.473 5.707-4.133 8.688-10.516 8.015-6.381-.686-9.337-4.372-8.598-10.05m21.281 10.796 1.683-21.24q4.763.377 9.532.653c4.971.287 8.277 3.253 8.108 7.913-.168 4.623-3.813 7.381-8.976 7.084a462 462 0 0 1-3.624-.224l-.412 6.272q-3.156-.208-6.311-.458m7.057-10.892q1.446.096 2.892.181c1.857.11 2.882-.79 2.96-2.26.074-1.44-.838-2.467-2.766-2.581q-1.385-.083-2.768-.173zm13.662 12.075.744-21.294q7.805.272 15.615.274l-.001 5.212q-4.845 0-9.69-.105l-.062 2.85q4.138.09 8.278.103l-.018 5.059q-4.185-.015-8.369-.104l-.064 2.973q5.025.108 10.05.107v5.212q-8.243 0-16.484-.287m38.262-5.621.249 5.298c-.509.178-1.247.303-1.956.333-3.933.169-7.18-.693-9.47-6.068l-.268-.608q-.89.02-1.78.037l.126 6.835q-3.16.06-6.323.075l-.109-21.307q4.944-.025 9.887-.16c5.008-.136 8.569 2.2 8.804 7.041.155 3.276-1.455 5.413-4.475 6.29 1.453 2.402 3.024 2.4 4.298 2.342a9 9 0 0 0 1.017-.108m-13.401-10.48.086 4.629q1.683-.032 3.366-.075c1.857-.049 2.738-1.03 2.693-2.409-.044-1.349-.977-2.267-2.906-2.216q-1.62.04-3.239.071m15.781 15.765-1.096-21.279q4.77-.245 9.535-.593c5.063-.373 7.846 1.633 8.165 5.087.228 2.504-1.385 4.25-3.262 4.927 2.599.463 4.435 1.77 4.683 4.456.368 3.934-2.267 6.35-7.33 6.73q-5.344.397-10.695.672m5.48-13.217q1.52-.099 3.039-.207c1.504-.109 2.195-.963 2.098-2.216s-.901-1.959-2.39-1.851q-1.505.107-3.011.205zm.553 8.505a472 472 0 0 0 3.063-.209c1.756-.126 2.59-.962 2.485-2.306-.105-1.346-1.049-2.039-2.787-1.914q-1.517.108-3.035.207zm14.573 3.197-2.03-21.21a449 449 0 0 0 15.389-1.741l.675 5.168q-4.738.618-9.484 1.137l.31 2.834q4.12-.45 8.234-.975l.641 5.018q-4.16.53-8.326.986l.323 2.956q5.003-.546 9.996-1.202l.679 5.168a471 471 0 0 1-16.407 1.86m23.934-2.911-2.352-15.923q-2.798.414-5.598.792l-.697-5.165A449 449 0 0 0 157.104 0L158 5.134q-2.835.495-5.674.954l2.567 15.89q-3.132.505-6.268.968"/>
</svg>
