<?xml version="1.0" encoding="UTF-8"?>
<svg id="Warstwa_1" xmlns="http://www.w3.org/2000/svg" version="1.1" viewBox="0 0 811 200" fill="#ffffff">
  <!-- Generator: Adobe Illustrator 30.3.0, SVG Export Plug-In . SVG Version: 2.1.3 Build 182)  -->
  <defs>
    <style>
      .st0 {
        fill: #fff;
      }
    </style>
  </defs>
  <path class="st0" d="M151.7,108.3c4.3,23.2,25.4,37.5,47.8,35.6,22-1.8,39.6-20.2,40.6-42.4s-13.8-42.3-36.1-46-12.7-.9-18.5.3c-22.9,4.7-38.4,27.4-33.7,52.5ZM638,143.5V57.2c.1,0-20.8.2-20.8.2l-.4,39.4-46.5-41.3-.2,86.5h21.9c0,.1,0-39.3,0-39.3l46,40.9ZM118.1,89.8h-35.2s0-11.3,0-11.3h25s20.7,0,20.7,0v-21.3c0,0-67.5,0-67.5,0v84.8s21.7,0,21.7,0v-31.2s35.3,0,35.3,0v-20.9ZM318,142.1l26.8-.2-18.1-30.5c11.9-5.7,17.7-16.8,16.1-29.7-1.1-12.1-11.1-23-24.2-24-16.2-1.2-32.5-.3-48.7-.5v84.7s21.1,0,21.1,0v-27.9s11.1,0,11.1,0l15.9,28ZM412,141.9v-63.4s20,0,20,0v-21.3s-62.9,0-62.9,0v21.2s20.2,0,20.2,0v63.5s22.8-.1,22.8-.1ZM529.9,57.2h-21.9s0,54.9,0,54.9c0,6.6-6.5,10.6-12.5,10.1-5.2-.5-10.3-4.8-10.4-11.6l-.2-53.3h-21.2s0,53.4,0,53.4c0,16.1,11.4,29.8,27.1,32.4,19.4,3.3,35.3-8.8,39-28.8v-57.2ZM721.8,128l5.1,14h23.4c0,0-31.8-84.7-31.8-84.7h-22c0-.1-30.5,84.6-30.5,84.6h23.2c0,0,5-14.1,5-14.1h27.7Z"/>
  <path d="M318,142.1l-15.9-28h-11.2s0,27.9,0,27.9h-21.1c0,0,0-84.8,0-84.8,16.2.1,32.5-.7,48.7.5,13.1,1,23.1,11.9,24.2,24,1.6,12.9-4.2,24-16.1,29.7l18.1,30.5-26.8.2ZM315.4,93.1c4.5,0,6.4-5.5,5.9-8.5s-3.6-6.2-6.8-6.2h-23.6s0,15,0,15l24.5-.3Z"/>
  <path d="M151.7,108.3c-4.7-25.2,10.8-47.8,33.7-52.5,5.8-1.2,12.7-1.3,18.5-.3,22.4,3.7,37.1,24.2,36.1,46s-18.6,40.6-40.6,42.4c-22.4,1.8-43.5-12.4-47.8-35.6ZM192,76.6c-13.6,2.1-21.6,15-19.3,27.2,2.4,12.4,14.1,20.6,26.3,18.7s21.4-13.7,19.4-26.6-13.2-21.4-26.5-19.3Z"/>
  <polygon points="638 143.5 592 102.6 591.9 142.1 570 142 570.2 55.5 616.7 96.8 617.1 57.4 638.1 57.2 638 143.5"/>
  <path d="M721.8,128h-27.7c0-.1-5,13.9-5,13.9h-23.2c0,0,30.5-84.7,30.5-84.7h22c0,.1,31.8,84.8,31.8,84.8h-23.4c0,0-5.1-13.9-5.1-13.9ZM714.1,107.1l-6.7-17.8-6,17.8h12.7Z"/>
  <path d="M529.9,57.2v57.2c-3.8,20-19.7,32-39.1,28.8-15.7-2.6-27.1-16.3-27.1-32.4v-53.4s21.2,0,21.2,0l.2,53.3c0,6.7,5.1,11.1,10.4,11.6,6,.6,12.5-3.5,12.5-10.1v-54.9s21.9,0,21.9,0Z"/>
  <polygon points="118.1 89.8 118.2 110.8 82.9 110.8 82.9 142 61.2 142.1 61.2 57.2 128.6 57.2 128.7 78.5 108 78.5 82.9 78.5 82.9 89.9 118.1 89.8"/>
  <polygon points="412 141.9 389.2 142 389.2 78.5 369.1 78.5 369.1 57.2 432 57.2 432 78.5 412 78.5 412 141.9"/>
</svg>