<svg xmlns="http://www.w3.org/2000/svg" width="134" height="38" fill="none"><path fill="#000" d="M54.36 14.5v2.34h4.38v2.26h-4.38v4.4h-2.7V12.17h7.45v2.34l-4.75-.01Zm6.51 9V12.17h2.75V23.5h-2.75Zm5.09 0V12.17h2.75v8.95h4.39v2.38h-7.14Zm18.69 0 .06-8.02h-.05l-2.94 8.02H79.8l-2.86-8.02h-.05l.06 8.02h-2.57V12.17h3.88l2.58 7.27h.06l2.47-7.27h3.95V23.5h-2.67Zm5.01 0V12.17h2.75V23.5h-2.75Zm12.01 0-4.2-5.22h-.04v5.22h-2.69V12.17h2.7v4.61h.04l4.05-4.6h3.42l-4.88 5.2 5.17 6.12h-3.57Zm4.45 0V12.17h2.75V23.5h-2.75Zm7.94-1.4c0 .44-.16.81-.48 1.11-.313.3-.687.45-1.12.45a1.59 1.59 0 0 1-.64-.13 1.48 1.48 0 0 1-.52-.32 1.486 1.486 0 0 1-.35-.48c-.087-.193-.13-.4-.13-.62 0-.213.043-.417.13-.61.087-.193.203-.36.35-.5a1.83 1.83 0 0 1 .52-.35c.2-.087.413-.13.64-.13.433 0 .807.15 1.12.45.32.3.48.673.48 1.12v.01Zm5.26-7.6v9h-2.74v-9h-3.2v-2.33h9.14v2.34l-3.2-.01Z"/><path fill="#000" d="M129.38 23.5h-2.73l-4.29-11.33h3.07l2.63 8.03h.06l2.6-8.03h3.03l-4.37 11.33ZM14.84 15.68l2.47 2.47 4.65-4.65 2.4 2.4-4.65 4.65 4.66 4.66-2.86 2.87L9.49 16.07l7.9-7.91 2.49 2.48-5.04 5.04Z"/><path fill="#000" d="M33 38H6a6 6 0 0 1-6-6V6a6 6 0 0 1 6-6h27a6 6 0 0 1 6 6v26a6 6 0 0 1-6 6ZM6 2a4 4 0 0 0-4 4v26a4 4 0 0 0 4 4h27a4 4 0 0 0 4-4V6a4 4 0 0 0-4-4H6Z"/></svg>