<svg xmlns="http://www.w3.org/2000/svg" id="Warstwa_2" data-name="Warstwa 2" viewBox="0 0 985.57 185.35"><defs><style>.cls-1{fill:#fff}</style></defs><g id="Warstwa_1-2" data-name="Warstwa 1"><path d="M195.69 10.36h303.46v148.72H195.69z" class="cls-1"/><path d="m435.43 49.47 15.94-28.05 47.78-3.82v-7.24h-306.3v32.72c-4.12-1.76-7.37-3.54-8.3-5.62-3-10.6-12.7-34.1-13.4-35-1.4-1.8-3.6-2.7-5.8-2.4-13.4 1.6-56.7 9.3-72.7 13.5-9.1 2.5-18.2 5-27.1 8.2-7 2.6-14 5.6-20.4 9.5-6 3.6-11.5 7.8-17.4 11.5-1.9 1.2-4.1 3.2-8.8 4.9-24.6 6.9-19.2 15.3-16.5 26.6 2.2 9 14.3 48.5 19.4 64.8 1.4 4.4 5.1 7.7 9.6 8.5 3.7.7 15.4-.3 23.3-1.1 4.6-.5 8.9 2.3 10.4 6.6l4.7 13.2c1 2.8 3.1 5 5.8 6 4 1.6 10 3.7 14.5 4.5 12.3 2.7 22.3 10.4 45.5 8.2 37-3.5 84-19.8 84-19.8l4.14-1.7h275.36V25.73l-34.57 61.18 4.09 51.21-51.97 4.15-4.09-51.21-50.03-62.55 52.59-4.2 20.27 25.15ZM308.21 150.94l-4.69-58.74-17.87 24.25-21.5-21.11 4.69 58.74-30.64 2.45a8.08 8.08 0 0 0 1.85-6.18s-11.8-53.9-22.8-92.9c-.9-3.25-4.54-5.81-9.07-8.03l-.68-8.51 50.44-4.03 23.17 22.75 19.34-26.15 50.36-4.02 9.38 117.33-51.97 4.15Z"/><path d="M517.57 145.26V29.84h49.61l20.87 24.05L609 29.84h49.54v115.41h-51.13V87.47l-19.36 22.31-19.36-22.31v57.78h-51.13Zm162.9 0V29.84h49.61l20.87 24.05 20.95-24.05h49.54v115.41h-51.13V87.47l-19.36 22.31-19.36-22.31v57.78h-51.13Zm203.22 0h-51.13l40.08-115.41h72.83l40.08 115.41H934.5l-6.66-19.51h-37.51l-6.66 19.51Zm15.96-46.74h18.91l-9.45-28.66-9.45 28.66Z" style="isolation:isolate"/><path d="M44.75 135.76c-4.6 0-7.9-.3-9-.6-3.5-.9-5-3-6.5-6.5-2.8-6.7-15.4-59.1-16.1-62.1-.1-2.3.5-3.4 2.2-4.4 5.3-3.2 11.4-5 16-6.3.6-.1 1.1-.3 1.7-.5 1.9-.6 4.1-1.2 6-1.2s3.2.6 4.1 2c2.3 3.3 9.2 28.5 14.7 48.7 2.1 7.6 4.1 14.8 5.8 21.1.6 2 .3 4-.9 5.7-1.1 1.7-2.9 2.9-5 3.2-3.7.6-8.3.9-13 .9Zm90 39.1c-1.8 0-4.6-4.8-6.8-15.5v-.2c-.3-1.5.3-3.3 1.5-4.8 1.5-.9 12.5-4.9 23.2-8.8 15.8-5.7 35.5-12.9 46.3-17.6 6.2-2.8 9.3-9.7 7.2-16.2-5.9-17.7-15.9-47.8-16.6-50.2-.1-.2-.2-.6-.4-1.2-2.3-6.7-2.7-9.2-2.7-10.1h.3c.5 0 .8.1 1 .2.7.4 2.5 1.4 4.5 2.6 3.5 2.1 7.9 4.7 9.7 5.6 3.2 1.6 5.2 4.2 6.1 8.1 2.1 8.7 15.6 62 19.6 78.1.8 3-.9 6.2-3.8 7.3-14.6 5.6-68.3 21-89.1 22.7Zm-51.9-29.8c-3.7 0-7-2.5-8-6.1-6.7-23.7-22.7-80-25.5-90.2-.8-2.9.5-5.8 3.1-7.2 5.9-3.1 14.2-7.1 20.6-9.1.7-.2 1.5-.4 2.3-.4 3.2 0 6 2.1 7 5.1 4.5 14.3 20.9 70.1 27.7 93.4.7 2.3.4 4.6-.9 6.7-1.2 2-3.2 3.4-5.5 3.9l-19.2 3.7c-.5.2-1 .2-1.6.2Z"/><path d="M127.55 142.86c-3.7 0-7-2.5-8-6.1-3.4-11.9-11.1-38.2-17.9-61.4-6-20.4-11.2-37.9-12.5-42.7-.8-2.9.5-5.8 3.1-7.2 3.2-1.7 7.8-2.7 12.2-3.6 2.8-.6 5.8-1.2 8.3-2 .7-.2 1.5-.4 2.3-.4 3.2 0 6 2.1 7 5.1 1.2 3.7 3.4 10.8 6.3 19.8 8.5 26.6 21.3 66.8 26.3 84 .7 2.3.4 4.6-.9 6.7-1.2 2-3.2 3.4-5.5 3.9l-19.2 3.7c-.4.2-1 .2-1.5.2Zm38.1-22.5c-3.5 0-6.6-2.2-7.6-5.3-3.2-10.5-10.6-33.8-17.1-54.3-5.7-18-10.6-33.6-11.9-37.8-.7-2.4.5-5 2.9-6.1 2.9-1.4 8.3-2.2 13.5-3.1 3.8-.6 7.4-1.2 10-1.9.7-.2 1.4-.3 2.2-.3 3.1 0 5.7 1.8 6.6 4.4 1.1 3.3 3.3 9.6 6 17.6 8.1 23.5 20.3 59 25.1 74.2.6 1.8.3 3.8-.7 5.5-1.1 1.9-3.1 3.2-5.4 3.6l-22.2 3.3c-.4.2-.9.2-1.4.2Z"/><path d="M62.85 131.66c-1.1 1.7-2.9 2.9-5 3.2-3.8.6-8.4.9-13.1.9s-7.9-.3-9-.6c-3.5-.9-5-3-6.5-6.5-1-2.4-3.2-10.4-5.7-19.9l33.7-6.1c.2.7.4 1.5.6 2.2 2.1 7.6 4.1 14.8 5.8 21.1.6 2 .3 4-.8 5.7Z" class="cls-1"/><path d="m57.25 102.76-33.7 6.1c-4.6-17.5-10-40.3-10.5-42.3-.1-2.3.5-3.4 2.2-4.4 5.3-3.2 11.4-5 16.1-6.3.6-.2 1.1-.3 1.7-.5 1.9-.6 4.1-1.2 6-1.2s3.2.6 4.1 1.9c2.2 3.3 8.7 26.8 14.1 46.7Zm52.9 28c-2.46-8.15-6.01-20.44-9.86-33.46-6.9-23.4-15.14-51.04-17.94-59.94-.9-3-3.8-5.1-7-5.1-.8 0-1.6.1-2.3.3-6.4 2-14.7 6-20.6 9.1-2.7 1.4-4 4.3-3.2 7.2 1.8 6.2 10.04 35.07 16.44 57.87 3.5 12.53 6.87 24.34 9.16 32.43 1 3.6 4.3 6.1 8 6.1.5 0 1.1-.1 1.6-.2l19.2-3.8c2.3-.5 4.3-1.9 5.5-3.9 1.3-2 1.6-4.4 1-6.6Zm44.5-2.2c-2.55-8.59-7.67-25.45-12.61-41.2h.01c-4.7-14.7-9.7-30.3-13.7-43-2.9-9-5.1-16.1-6.3-19.8-.9-3-3.8-5.1-7-5.1-.8 0-1.5.1-2.3.3-2.5.9-5.5 1.5-8.3 2.1-4.4.9-9 1.9-12.2 3.6-2.6 1.4-3.9 4.3-3.1 7.2 1.3 4.8 6.5 22.3 12.5 42.7 1.32 4.4 2.64 8.9 3.96 13.4h-.03c5.2 17.5 11.47 39.3 13.97 48.1 1 3.6 4.3 6.1 8 6.1.5 0 1.1-.1 1.6-.2l19.2-3.8c2.3-.4 4.3-1.8 5.5-3.8s1.5-4.4.8-6.6Zm40.7-20.7c-1.83-5.67-4.66-14.31-7.94-24.07 0-.03-.02-.06-.03-.09-5.1-15.19-12.44-36.67-17.23-50.04-2.7-8-4.9-14.3-6-17.6-.9-2.6-3.5-4.4-6.6-4.4-.8 0-1.5.1-2.2.3-2.6.7-6.2 1.3-10 1.9-5.1.9-10.5 1.7-13.4 3.1-2.4 1.1-3.6 3.7-2.9 6.1 1.2 4.2 6.2 19.8 11.9 37.8 2.59 8.38 7.16 22.67 9.77 30.88 3.07 9.71 5.74 18.2 7.33 23.42 1 3.1 4.1 5.3 7.6 5.3.5 0 1-.1 1.6-.2l22.1-3.3c2.3-.4 4.3-1.7 5.4-3.6 1-1.7 1.2-3.6.6-5.5Z" class="cls-1"/><path d="M227.55 144.96c-1.6-6.4-4.64-19.14-7.94-32.04-4.96-19.65-10.38-40.91-11.66-46.16-.9-3.9-2.9-6.5-6.1-8.1-1.8-.9-6.2-3.5-9.7-5.6-2-1.2-3.8-2.2-4.5-2.6-.2-.1-.5-.2-1-.2h-.3c0 .9.4 3.4 2.7 10.1.2.6.3 1 .4 1.2.7 2.4 10.7 32.5 16.6 50.2.82 2.6.75 3.99.75 3.99 0 5.12-3.13 10.14-7.95 12.31-10.8 4.7-30.5 11.9-46.3 17.6-10.6 3.9-21.7 7.9-23.2 8.8-1.3 1.5-1.8 3.3-1.5 4.8l.1.2c2.2 10.7 5 15.5 6.8 15.5h.1c20.7-1.8 74.4-17.2 89-22.7 2.9-1.2 4.5-4.3 3.7-7.3Z" class="cls-1"/></g></svg>