<svg xmlns="http://www.w3.org/2000/svg" data-name="Warstwa 2" viewBox="0 0 668.48 231.16"><g data-name="Warstwa 1"><path d="M308.91.16v18.28h-18.28v91.43h-18.29V18.44h-18.29V.16h54.86zm45.82 49.8V.28h18.28v109.69h-36.57l-18.13-18.29V72.25h18.13v19.43h18.29V70.95l-36.42-21.02V.28h18.13V39.3l18.29 10.66zm64.93-31.67h-18.29v31.24l18.29-10.51V18.28Zm0-18.29 18.29 18.29v31.24c-12.24 7.07-24.49 14.1-36.58 21.17v39.02h-18.29V0h36.58Zm45.94 91.43h18.29V18.29H465.6v73.15ZM447.31 0h36.58l18.29 18.29v91.4H465.6L447.31 91.4V0Zm92.28 109.69-27.37-15.84V0h18.29v83.34l9.08 5.33 9.21-5.33V0h18.29v83.34l9.08 5.33 9.2-5.33V0h18.29v93.85l-27.49 15.84-18.29-10.51-18.29 10.51zm110.6-59.73V.28h18.29v109.69H631.9l-18.13-18.29V72.25h18.13v19.43h18.29V70.95l-36.42-21.02V.28h18.13V39.3l18.29 10.66zm-365.18 71.48v49.52l18.29-10.5v-39.02h18.29v49.52l-9.21 5.33 9.21 5.18V231H303.3v-38.87l-9.2-5.33-9.09 5.33V231h-18.28V121.44h18.28zm46.65-.28h18.29v109.69h-18.29zm64.94 60.31-18.29 10.66v20.74h18.29v-31.4Zm0-41.75h-18.29v31.24l18.29-10.51v-20.74Zm-18.28-18.28h18.29l18.29 18.29v31.24l-9.08 5.33 9.08 5.18v31.4l-15.84 18.13h-39.02V121.45h18.29Zm46.65-.28h18.29v109.69h-18.29zm64.93.28 18.29 18.28v27.37H489.9v-27.37h-18.28v73.15h18.28v-27.49h18.29v27.49L492.35 231h-39.02V121.44h36.57zm43.03 73.82h35.15v35.15h-35.15zm-342.36-68.38-21.02-17.26-12.11 14.84a5.099 5.099 0 0 1-3.94 1.87H81.04c-1.53 0-2.97-.69-3.94-1.87l-12.11-14.84-21.02 17.26c15.58 19.47 10 12.5 25.35 31.69 2.04 2.55 3.15 5.72 3.15 8.99v63.59c53.95.01 33.2.01 89.55 0v-63.52c0-3.27 1.11-6.44 3.15-8.99l25.41-31.76Z"/><path d="m190.57 126.88-25.41 31.76a14.338 14.338 0 0 0-3.16 8.99v63.52c-53.8.01-33.16.01-89.55 0v-63.6c0-3.27-1.11-6.43-3.15-8.99-13.86-17.33-8.14-10.19-25.35-31.69l21.03-17.27 12.11 14.85a5.084 5.084 0 0 0 3.94 1.87h16.46A19.772 19.772 0 0 0 115.04 137h4.39c7.39 0 14.16-4.12 17.55-10.68h16.52c1.53 0 2.97-.69 3.94-1.87l12.11-14.85 21.02 17.27Z"/><path d="M163.63 231.15h-3.26v-63.52c0-3.63 1.25-7.18 3.51-10l24.4-30.5-18.52-15.21-11.08 13.58a6.675 6.675 0 0 1-5.2 2.47h-15.55a21.31 21.31 0 0 1-18.51 10.68h-4.39c-7.61 0-14.69-4.06-18.51-10.68h-15.5c-2.02 0-3.92-.9-5.2-2.47l-11.08-13.58-18.52 15.21 24.34 30.43c2.26 2.83 3.51 6.38 3.51 10v63.6h-3.26v-63.6c0-2.89-.99-5.72-2.79-7.97l-26.35-32.94 23.53-19.32 13.14 16.11c.66.81 1.64 1.27 2.68 1.27h17.45l.46.88c3.12 6.04 9.36 9.8 16.1 9.8h4.39c6.81 0 12.98-3.76 16.1-9.8l.46-.88h17.51c1.04 0 2.02-.46 2.67-1.27l13.14-16.12 23.53 19.32-26.41 33.02a12.81 12.81 0 0 0-2.8 7.97v63.52Z"/><path d="M137.83 126.33a33.438 33.438 0 0 1-41.18 0h41.18Z"/><path d="M119.43 138.64h-4.39c-8.03 0-15.31-4.43-19-11.56l-1.23-2.38h44.84l-1.23 2.38a21.318 21.318 0 0 1-19 11.56Zm-19.03-10.68c3.38 4.64 8.77 7.42 14.63 7.42h4.39c5.86 0 11.25-2.79 14.63-7.42h-33.66ZM90.79 91.2v-4.52h-1.12c-2.6.49-4.57 2.78-4.57 5.53v3.72c0 1.49.59 2.92 1.65 3.97 1.72 1.73 2.44 2.68 4.1 3.18-.08-1.17-.05-1.35-.05-11.88Z"/><path d="M92.62 105.32c-4.38-1.33-3.93-1.16-7.04-4.28-1.35-1.33-2.12-3.2-2.12-5.12V92.2c0-3.49 2.48-6.49 5.9-7.13.21-.04-.25-.03 3.05-.03 0 19.55-.06 16.33.21 20.28Zm-3.46-16.8a4.003 4.003 0 0 0-2.44 3.69v3.72c0 1.06.42 2.08 1.16 2.81l1.27 1.28v-11.5Zm54.57 2.68v-4.52h1.12c2.6.49 4.57 2.78 4.57 5.53v3.72c0 1.49-.59 2.92-1.65 3.97-1.72 1.73-2.44 2.68-4.1 3.18.08-1.17.05-1.35.05-11.88Z"/><path d="M141.9 105.32c.28-4.09.21-.64.21-20.28h2.9c3.75.71 6.05 3.81 6.05 7.16v3.72c0 1.92-.78 3.79-2.13 5.13-3.31 3.32-2.93 3.03-7.03 4.27Zm3.46-5.3 1.27-1.27a3.98 3.98 0 0 0 1.17-2.82v-3.72c0-1.63-.99-3.07-2.44-3.69v11.5Z"/><path d="M117.23 127.96c-15.48 0-28.08-12.6-28.08-28.08V86.61c0-15.48 12.59-28.08 28.08-28.08s28.08 12.59 28.08 28.08v13.27c0 15.48-12.59 28.08-28.08 28.08Zm0-66.16c-13.69 0-24.82 11.13-24.82 24.82v13.27c0 13.65 11.1 24.82 24.82 24.82s24.82-11.13 24.82-24.82V86.62c0-13.69-11.13-24.82-24.82-24.82Z"/><path d="M133.34 78.88s1.1 9.56 10.39 10.48c.78.08 1.46-.53 1.46-1.31v-6.43c0-15.53-12.59-28.13-28.13-28.13-15.49 0-28.13 12.55-28.13 28.13v6.5c0 .73.59 1.32 1.32 1.32h15.4c6.81 0 13.3-2.58 18.48-7 2.28-1.95 5.34-3.54 9.22-3.54Z"/><path d="M105.64 91.06h-15.4c-1.62 0-2.94-1.32-2.94-2.94v-6.5c0-16.41 13.35-29.76 29.76-29.76s29.76 13.35 29.76 29.76v6.43c0 1.73-1.5 3.1-3.25 2.93-7.36-.72-10.59-6.46-11.57-10.39-2.45.27-4.74 1.31-6.82 3.08-5.58 4.77-12.52 7.39-19.53 7.39ZM90.56 87.8h15.09c6.24 0 12.42-2.35 17.42-6.61 3.06-2.61 6.52-3.93 10.27-3.93h1.45l.17 1.44c.04.35 1.08 8.05 8.6 9.01v-6.09c0-14.61-11.89-26.5-26.5-26.5s-26.5 11.89-26.5 26.5v6.18ZM57.13 27.53c1.75 2 1.53 5.06-.35 6.94l-9.27 9.27-1.08 1.69.73 8.98H28.64c.37-11.97.28-4.14.28-33.17 0-3.74 3.03-6.77 6.77-6.77h4.42a7.66 7.66 0 0 1 7.66 7.66v7.23l2.07-2.07a4.992 4.992 0 0 1 7.29.24Zm130.22 26.88.73-8.98-1.07-1.69-9.27-9.27c-1.88-1.88-2.1-4.94-.35-6.94a4.992 4.992 0 0 1 7.29-.24l2.07 2.07v-7.23a7.66 7.66 0 0 1 7.66-7.66h4.42c3.74 0 6.77 3.03 6.77 6.77 0 29.02-.09 21.19.28 33.17h-18.53Z"/><path d="M44.54 128.51h-1.35c-.77-.91.31.37-10.18-12.21a31.413 31.413 0 0 1-7.27-21.09c1.86-59.8 1.55-43.58 1.55-73.97 0-4.63 3.77-8.4 8.4-8.4h4.42c5.12 0 9.29 4.17 9.29 9.28v3.39c2.69-2.01 6.59-1.76 8.96.93 2.29 2.61 2.11 6.64-.42 9.17l-9.14 9.14-.69 1.08 3.71 45.52 15.47 18.47-22.74 18.68ZM35.69 16.1c-2.84 0-5.14 2.31-5.14 5.14 0 30.46.31 14.21-1.55 74.07-.21 6.89 2.1 13.6 6.51 18.9l8.65 10.39 18.5-15.2-14.02-16.74-3.88-47.65 1.47-2.3 9.4-9.4c2.19-2.19.81-5.77-2.15-5.86a3.36 3.36 0 0 0-2.49.98l-4.85 4.85V22.12c0-3.32-2.7-6.03-6.03-6.03h-4.42Zm155.65 112.41h-1.36c-.71-.58-2.51-2.06-22.75-18.68l15.47-18.47 3.71-45.52-.69-1.08-9.14-9.14c-2.53-2.53-2.71-6.56-.42-9.17 2.37-2.69 6.27-2.94 8.96-.93v-3.39c0-5.12 4.17-9.29 9.29-9.29h4.42c4.63 0 8.4 3.77 8.4 8.4 0 30.47-.31 14.29 1.55 73.66.24 7.55-2.26 14.94-7.02 20.8l-10.41 12.81Zm-19.49-19.11 18.49 15.18 8.89-10.94c4.27-5.25 6.5-11.87 6.29-18.64-1.86-59.43-1.55-43.24-1.55-73.76 0-2.84-2.31-5.14-5.14-5.14h-4.42c-3.32 0-6.03 2.7-6.03 6.03v11.16l-4.85-4.85a3.358 3.358 0 0 0-4.91.17c-1.16 1.32-1.04 3.4.28 4.71l9.4 9.4 1.47 2.3-3.88 47.65-14.02 16.74Z"/><path d="M27.36 21.34S20.9 30.91 8.55 36.18v36.94S23.62 65 28.64 54.49l.28-9.06h-1.56V21.34Zm179.8 0s6.46 9.57 18.81 14.84v36.94S210.9 65 205.88 54.49l-.28-9.06h1.56V21.34Z"/><path d="M225.97 48.29v11.33c-12.35-5.27-18.81-14.84-18.81-14.84V33.45s6.46 9.57 18.81 14.84Zm-217.42 0v11.33c12.35-5.27 18.81-14.84 18.81-14.84V33.45S20.9 43.02 8.55 48.29Z"/><path d="M6.92 75.85V35.1l.99-.42c11.73-5 18.04-14.16 18.1-14.26l2.98-4.39V43.8h1.62c-.38 12.3-.28 10.95-.49 11.4-5.2 10.86-20.16 19.01-20.79 19.36l-2.4 1.29Zm3.26-38.61v33.03c4.3-2.68 13.19-8.87 16.85-16.17l.22-7.04h-1.51V25.9c-2.98 3.25-8.19 7.98-15.55 11.34Z"/><path d="M1.74 79.36 0 76.61l6.92-4.39V38.68l-5.39 2.38-1.32-2.98 9.97-4.41v40.35l-8.44 5.34z"/><path d="m1.7 66.86-1.66-2.8 6.88-4.09v-8.96l-5.26 2.91-1.58-2.86 10.1-5.56v16.33L1.7 66.86zm231.12 0-8.47-5.03V45.5l10.09 5.56-1.57 2.86-5.27-2.91v8.96l6.88 4.09-1.66 2.8z"/><path d="m227.6 75.85-2.4-1.29c-.63-.34-15.59-8.5-20.79-19.36-.22-.45-.11.79-.49-11.4h1.61V16.01l2.98 4.42c.11.16 6.41 9.27 18.1 14.25l.99.42v40.75Zm-20.1-21.76c3.66 7.3 12.55 13.49 16.85 16.17V37.23c-7.37-3.35-12.57-8.09-15.55-11.34v21.16h-1.51l.22 7.04Z"/><path d="m232.85 78.89-8.5-4.82v-40.4l9.96 4.41-1.32 2.98-5.39-2.38v33.49l6.86 3.88-1.61 2.84zm-188.9 47.99 21.03-17.26 4.99 6.12-20.79 17.68-5.23-6.54zm146.62 0-21.03-17.26-4.99 6.12 20.79 17.68 5.23-6.54z"/><path d="m48.96 135.75-7.28-9.1 23.53-19.32 7.04 8.63-23.29 19.8Zm-2.73-8.63 3.18 3.97 18.3-15.56-2.95-3.62-18.52 15.21Zm139.33 8.63-23.28-19.8 7.04-8.63 23.53 19.32-7.28 9.1Zm-18.74-20.22 18.3 15.56 3.18-3.97-18.52-15.21-2.95 3.62ZM27.36 18.56h53.81v11.38H27.36zm125.99 0h53.81v11.38h-53.81z"/><path d="M208.79 47.06H25.73V1.89h183.06v45.17ZM28.99 43.8h176.55V5.15H28.99V43.8Zm62.46 162.71h53.21v10.82H91.45z"/><path d="M146.3 218.96H89.83v-14.08h56.47v14.08Zm-53.22-3.25h49.96v-7.57H93.08v7.57Zm115.9-74.99c-3.24 0-5.93-2.55-6.07-5.83-.15-3.57 2.81-6.34 5.82-6.34 3.38-.14 6.2 2.47 6.34 5.82.15 3.43-2.6 6.35-6.09 6.35Zm-.12-8.91c-2.53.11-3.63 3.22-1.79 4.91 1.85 1.7 4.84.29 4.74-2.21a2.838 2.838 0 0 0-2.95-2.71Zm-20.98 33.05a4.72 4.72 0 0 1-4.71-4.52c-.18-4.18 4.82-6.52 7.91-3.68 3.14 2.88 1.13 8.21-3.2 8.21Zm-1.46-4.67c.03.8.7 1.43 1.53 1.4 1.3-.06 1.89-1.67.93-2.55-.95-.88-2.51-.16-2.45 1.15ZM27.034 149.506l7.92-7.92 2.304 2.306-7.92 7.92zm16.686-.896h3.26v11.2h-3.26zm-24.98-16.06h11.2v3.26h-11.2zM113.9 8.12v5.38h-5.38v26.88h-5.38V13.5h-5.37V8.12h16.13zm8.77 0V22.7l5.38-3.09V8.12h5.39V22.7l-2.71 1.57 2.71 1.53v14.58h-5.39V28.94l-2.71-1.57-2.67 1.57v11.44h-5.38V8.12h5.38z"/></g></svg>