<svg width="168" height="20" viewBox="0 0 168 20" fill="none" xmlns="http://www.w3.org/2000/svg">
<path d="M152.841 0H167.169V3.2565H156.692V8.26867H166.348V11.4685H156.692V16.5657H167.169V19.8222H152.841V0Z" fill="white"/>
<path d="M133.345 0H146.031L149.429 3.39808V16.4241L146.031 19.8222H133.345V0ZM144.134 16.5373L145.578 15.0932V4.729L144.134 3.28481H137.196V16.5373H144.134Z" fill="white"/>
<path d="M113.234 16.5657V3.2565L116.491 0H126.685L129.941 3.2565V16.5657L126.685 19.8222H116.491L113.234 16.5657ZM124.646 16.5373L126.09 15.0932V4.729L124.646 3.28481H118.529L117.085 4.729V15.0932L118.529 16.5373H124.646Z" fill="white"/>
<path d="M94.6784 16.5657V3.2565L97.9349 0H107.619L110.819 3.19986V6.22982H106.968V4.61573L105.637 3.28481H99.9738L98.5296 4.729V15.0932L99.9738 16.5373H105.637L106.968 15.2064V13.5923H110.819V16.6223L107.619 19.8222H97.9349L94.6784 16.5657Z" fill="white"/>
<path d="M75.1892 0H79.0404V8.29699H87.4223V0H91.2735V19.8222H87.4223V11.5818H79.0404V19.8222H75.1892V0Z" fill="white"/>
<path d="M56.3504 16.5657V3.2565L59.6069 0H69.2914L72.4913 3.19986V6.22982H68.6401V4.61573L67.3092 3.28481H61.6457L60.2016 4.729V15.0932L61.6457 16.5373H67.3092L68.6401 15.2064V13.5923H72.4913V16.6223L69.2914 19.8222H59.6069L56.3504 16.5657Z" fill="white"/>
<path d="M45.014 3.2565H39.0956V0H54.7835V3.2565H48.8651V19.8222H45.014V3.2565Z" fill="white"/>
<path d="M30.2991 0H33.8105L41.0597 19.8222H37.1519L35.5378 15.433H28.5718L26.9577 19.8222H23.0499L30.2991 0ZM34.6883 12.2614L32.0548 4.729H31.9982L29.4496 12.2614H34.6883Z" fill="white"/>
<path d="M0 0H3.87948L6.28646 13.9888H6.39972L10.3358 0H13.2242L17.0754 13.9888H17.1886L19.5956 0H23.4751L19.3691 19.8222H15.7728L11.8367 5.89001H11.7234L7.70232 19.8222H4.10602L0 0Z" fill="white"/>
</svg>
